<mxfile host="app.diagrams.net" modified="2024-05-28T23:07:04.111Z" agent="Mozilla/5.0 (Windows NT 10.0; Win64; x64) AppleWebKit/537.36 (KHTML, like Gecko) Chrome/122.0.0.0 YaBrowser/24.4.0.0 Safari/537.36" version="24.4.9" etag="u0DkrayPzm7SsOeJfw5y" type="device">
  <diagram id="zD_DCxe8vIbMlCytayWe" name="Страница — 1">
    <mxGraphModel dx="1593" dy="921" grid="1" gridSize="10" guides="1" tooltips="1" connect="1" arrows="1" fold="1" page="1" pageScale="1" pageWidth="827" pageHeight="1169" math="0" shadow="0">
      <root>
        <mxCell id="0" />
        <mxCell id="1" parent="0" />
        <mxCell id="aTdBJUuE0evVGNYMuplS-1" value="Незарегистрированный&lt;div&gt;пользователь&lt;/div&gt;" style="shape=umlActor;verticalLabelPosition=bottom;verticalAlign=top;html=1;outlineConnect=0;" vertex="1" parent="1">
          <mxGeometry x="100" y="90" width="30" height="60" as="geometry" />
        </mxCell>
        <mxCell id="aTdBJUuE0evVGNYMuplS-2" value="Зарегистрироваться" style="ellipse;whiteSpace=wrap;html=1;" vertex="1" parent="1">
          <mxGeometry x="220" y="50" width="110" height="70" as="geometry" />
        </mxCell>
        <mxCell id="aTdBJUuE0evVGNYMuplS-5" value="" style="endArrow=classic;html=1;rounded=0;entryX=0;entryY=0.5;entryDx=0;entryDy=0;" edge="1" parent="1" source="aTdBJUuE0evVGNYMuplS-1" target="aTdBJUuE0evVGNYMuplS-2">
          <mxGeometry width="50" height="50" relative="1" as="geometry">
            <mxPoint x="430" y="260" as="sourcePoint" />
            <mxPoint x="480" y="210" as="targetPoint" />
          </mxGeometry>
        </mxCell>
        <mxCell id="aTdBJUuE0evVGNYMuplS-6" value="Оформить заказ" style="ellipse;whiteSpace=wrap;html=1;" vertex="1" parent="1">
          <mxGeometry x="220" y="140" width="110" height="70" as="geometry" />
        </mxCell>
        <mxCell id="aTdBJUuE0evVGNYMuplS-7" value="" style="endArrow=classic;html=1;rounded=0;entryX=0.018;entryY=0.433;entryDx=0;entryDy=0;entryPerimeter=0;" edge="1" parent="1" source="aTdBJUuE0evVGNYMuplS-1" target="aTdBJUuE0evVGNYMuplS-6">
          <mxGeometry width="50" height="50" relative="1" as="geometry">
            <mxPoint x="430" y="260" as="sourcePoint" />
            <mxPoint x="480" y="210" as="targetPoint" />
          </mxGeometry>
        </mxCell>
        <mxCell id="aTdBJUuE0evVGNYMuplS-8" value="Оплатить заказ" style="ellipse;whiteSpace=wrap;html=1;" vertex="1" parent="1">
          <mxGeometry x="414" y="100" width="110" height="70" as="geometry" />
        </mxCell>
        <mxCell id="aTdBJUuE0evVGNYMuplS-9" value="" style="endArrow=classic;html=1;rounded=0;exitX=1;exitY=0.5;exitDx=0;exitDy=0;entryX=0;entryY=0.5;entryDx=0;entryDy=0;" edge="1" parent="1" source="aTdBJUuE0evVGNYMuplS-6" target="aTdBJUuE0evVGNYMuplS-8">
          <mxGeometry width="50" height="50" relative="1" as="geometry">
            <mxPoint x="430" y="260" as="sourcePoint" />
            <mxPoint x="480" y="210" as="targetPoint" />
          </mxGeometry>
        </mxCell>
        <mxCell id="aTdBJUuE0evVGNYMuplS-13" style="edgeStyle=orthogonalEdgeStyle;rounded=0;orthogonalLoop=1;jettySize=auto;html=1;entryX=0;entryY=0.5;entryDx=0;entryDy=0;" edge="1" parent="1" source="aTdBJUuE0evVGNYMuplS-10" target="aTdBJUuE0evVGNYMuplS-12">
          <mxGeometry relative="1" as="geometry" />
        </mxCell>
        <mxCell id="aTdBJUuE0evVGNYMuplS-10" value="Зарегистрированный&lt;div&gt;пользователь&lt;/div&gt;" style="shape=umlActor;verticalLabelPosition=bottom;verticalAlign=top;html=1;outlineConnect=0;" vertex="1" parent="1">
          <mxGeometry x="90" y="280" width="30" height="60" as="geometry" />
        </mxCell>
        <mxCell id="aTdBJUuE0evVGNYMuplS-11" value="" style="endArrow=classic;html=1;rounded=0;entryX=0;entryY=1;entryDx=0;entryDy=0;" edge="1" parent="1" source="aTdBJUuE0evVGNYMuplS-10" target="aTdBJUuE0evVGNYMuplS-6">
          <mxGeometry width="50" height="50" relative="1" as="geometry">
            <mxPoint x="430" y="260" as="sourcePoint" />
            <mxPoint x="480" y="210" as="targetPoint" />
          </mxGeometry>
        </mxCell>
        <mxCell id="aTdBJUuE0evVGNYMuplS-12" value="Авторизоваться" style="ellipse;whiteSpace=wrap;html=1;" vertex="1" parent="1">
          <mxGeometry x="210" y="275" width="110" height="70" as="geometry" />
        </mxCell>
        <mxCell id="aTdBJUuE0evVGNYMuplS-14" value="Стать курьером" style="ellipse;whiteSpace=wrap;html=1;" vertex="1" parent="1">
          <mxGeometry x="190" y="390" width="110" height="70" as="geometry" />
        </mxCell>
        <mxCell id="aTdBJUuE0evVGNYMuplS-15" value="" style="endArrow=classic;html=1;rounded=0;entryX=0;entryY=0;entryDx=0;entryDy=0;" edge="1" parent="1" source="aTdBJUuE0evVGNYMuplS-10" target="aTdBJUuE0evVGNYMuplS-14">
          <mxGeometry width="50" height="50" relative="1" as="geometry">
            <mxPoint x="430" y="400" as="sourcePoint" />
            <mxPoint x="480" y="350" as="targetPoint" />
          </mxGeometry>
        </mxCell>
        <mxCell id="aTdBJUuE0evVGNYMuplS-16" value="Менеджер" style="shape=umlActor;verticalLabelPosition=bottom;verticalAlign=top;html=1;outlineConnect=0;" vertex="1" parent="1">
          <mxGeometry x="510" y="260" width="30" height="60" as="geometry" />
        </mxCell>
        <mxCell id="aTdBJUuE0evVGNYMuplS-17" value="" style="endArrow=classic;html=1;rounded=0;entryX=1;entryY=1;entryDx=0;entryDy=0;" edge="1" parent="1" source="aTdBJUuE0evVGNYMuplS-16" target="aTdBJUuE0evVGNYMuplS-6">
          <mxGeometry width="50" height="50" relative="1" as="geometry">
            <mxPoint x="430" y="280" as="sourcePoint" />
            <mxPoint x="480" y="230" as="targetPoint" />
          </mxGeometry>
        </mxCell>
        <mxCell id="aTdBJUuE0evVGNYMuplS-18" value="" style="endArrow=classic;html=1;rounded=0;entryX=1;entryY=0.5;entryDx=0;entryDy=0;" edge="1" parent="1" source="aTdBJUuE0evVGNYMuplS-16" target="aTdBJUuE0evVGNYMuplS-12">
          <mxGeometry width="50" height="50" relative="1" as="geometry">
            <mxPoint x="520" y="294" as="sourcePoint" />
            <mxPoint x="324" y="210" as="targetPoint" />
          </mxGeometry>
        </mxCell>
        <mxCell id="aTdBJUuE0evVGNYMuplS-19" value="Распределение заказов между курьерами" style="ellipse;whiteSpace=wrap;html=1;" vertex="1" parent="1">
          <mxGeometry x="600" y="190" width="110" height="70" as="geometry" />
        </mxCell>
        <mxCell id="aTdBJUuE0evVGNYMuplS-22" value="" style="endArrow=classic;html=1;rounded=0;entryX=0;entryY=0.5;entryDx=0;entryDy=0;" edge="1" parent="1" source="aTdBJUuE0evVGNYMuplS-16" target="aTdBJUuE0evVGNYMuplS-19">
          <mxGeometry width="50" height="50" relative="1" as="geometry">
            <mxPoint x="520" y="294" as="sourcePoint" />
            <mxPoint x="324" y="210" as="targetPoint" />
          </mxGeometry>
        </mxCell>
      </root>
    </mxGraphModel>
  </diagram>
</mxfile>
